<?xml version="1.0" encoding="UTF-8"?>
<svg xmlns="http://www.w3.org/2000/svg" width="582" height="224" viewBox="0 0 582 224" fill="none">
  <path d="M216.729 224V153.106H241.738L241.148 184.085L258.11 153.106H285.794L263.772 187.362L278.66 210.298L298.954 153.166L327.097 153.184L352.48 224H325.684L322.931 215.141L303.585 215.409L301.868 224H258.402L242.024 194.207C240.689 193.689 241.177 195.577 241.136 196.292C240.617 205.484 242.411 214.778 241.732 224H216.723H216.729ZM308.418 198.383H318.538L314.068 176.334C313.031 176.215 312.87 177.085 312.59 177.836C310.45 183.579 310.027 192.259 308.418 198.383Z" fill="#068163"></path>
  <path d="M19.0541 76.2553H0V224H19.0541V76.2553Z" fill="#068163"></path>
  <path d="M51.7984 224V76.2553H70.8525L70.2565 224H51.7984Z" fill="#068163"></path>
  <path d="M535.268 153.106L542.712 168.584L550.454 153.106H578.138L556.795 186.063L581.708 223.404H552.534L543.302 204.334C542.247 204.191 542.157 205.139 541.794 205.806C538.653 211.525 535.989 217.655 532.89 223.404H503.715L528.008 186.075L506.695 153.106H535.274H535.268Z" fill="#068163"></path>
  <path d="M199.463 26.5106L84.2267 140.572C82.5877 142.46 82.6473 144.307 83.3506 146.553C74.4821 138.957 67.6698 132.297 76.7946 121.222L199.463 0.595734V26.5106Z" fill="#068163"></path>
  <path d="M500.139 153.106V172.17H478.111C478.421 174.47 477.259 177.591 479.005 179.319H498.357V197.191H478.111V204.34H500.735V223.404H452.507V153.106H500.139Z" fill="#068163"></path>
  <path d="M199.463 62.8511C168.775 93.1089 138.189 123.474 107.489 153.72C103.835 157.318 98.638 159.076 101.213 165.617C96.9633 159.04 82.6831 152.82 90.4847 143.854L199.463 36.3404V62.8511Z" fill="#2CA24A"></path>
  <path d="M44.6583 76.2553H26.2002V223.404H44.6583V76.2553Z" fill="#2CA24A"></path>
  <path d="M448.341 153.106V175.745L434.049 175.149V223.404H409.041V175.149L394.755 175.745V153.106H448.341Z" fill="#068163"></path>
  <path d="M199.463 99.7872L119.057 178.39C117.74 180.034 118.872 181.726 119.081 183.489C115.177 177.74 102.542 171.032 108.049 163.21L199.469 73.2766V99.7872H199.463Z" fill="#068163"></path>
  <path d="M381.655 153.106V201.362H403.087V223.404H356.05V153.106H381.655Z" fill="#068163"></path>
  <path d="M200.649 178.723V197.787H136.645C135.828 197.787 131.227 195.732 130.435 195.065C129.362 194.165 122.436 186.849 121.787 185.843C119.999 183.084 120.183 181.589 121.459 178.723H200.649Z" fill="#2CA24A"></path>
  <path d="M200.649 152.511V171.574H129.797L148.553 152.511H200.649Z" fill="#068163"></path>
  <path d="M200.649 204.34V223.404H159.865C156.212 223.404 141.925 206.36 138.135 203.447C139.017 202.494 140.745 204.34 141.407 204.34H200.649Z" fill="#068163"></path>
</svg>
